<?xml version="1.0" encoding="utf-8"?>
<!-- Generator: Adobe Illustrator 26.1.0, SVG Export Plug-In . SVG Version: 6.00 Build 0)  -->
<svg version="1.1" id="Capa_1" xmlns="http://www.w3.org/2000/svg" xmlns:xlink="http://www.w3.org/1999/xlink" x="0px" y="0px"
	 viewBox="0 0 425.9 334.3" style="enable-background:new 0 0 425.9 334.3;" xml:space="preserve">
<style type="text/css">
	.st0{fill:#FFFFFF;}
	.st1{fill:#E40001;}
</style>
<g>
	
		<text transform="matrix(1 0 0 1 -359.4411 530.2891)" class="st1" style="font-family:'TiroDevaSanskrit-Regular'; font-size:201.8021px;">El Veraz</text>
</g>
<image style="overflow:visible;enable-background:new    ;" width="1879" height="970" xlink:href="C:\Users\Cesar\OneDrive\Escritorio\Opera Snapshot_2022-06-15_202004_tabrisarg.github.io.png"  transform="matrix(1 0 0 1 1120.5042 -115.65)">
</image>
<rect x="703" y="10.8" class="st0" width="231.1" height="49.9"/>
<text transform="matrix(1 0 0 1 702.9958 60.7541)" class="st1" style="font-family:'TiroDevaSanskrit-Regular'; font-size:53px;">El Veraz</text>
<path class="st1" d="M-324.9-9.8c-0.6,0.1-1.1,0.1-1.4,0.2c-0.4,0.1-0.7,0.2-1,0.4s-0.5,0.5-0.7,1s-0.5,1-0.8,1.8l-6.8,16.9
	c-0.2,0.1-0.5,0.1-0.8,0.2c-0.3,0-0.6,0.1-0.8,0.1l-6.3-16.7l0,0c-0.2-0.6-0.5-1.1-0.8-1.6s-0.7-0.8-1-1.1c-0.4-0.3-0.8-0.5-1.4-0.6
	c-0.5-0.1-1.2-0.2-2-0.2h-4V-1h1.7c1,0,1.7-0.1,2.2-0.2s0.9-0.4,1.1-0.9s0.4-1.2,0.6-2.2c0.4-0.1,0.7-0.1,1,0c0,0.9,0,1.6,0,2.1
	s0,0.8,0,1v0.8l0.1,4c-0.3,0.1-0.7,0.1-1,0c-0.1-1.1-0.3-1.8-0.5-2.3s-0.6-0.8-1.1-0.9s-1.1-0.2-2-0.2h-1.9v6.6c0,0.7,0,1.2,0,1.6
	s0,0.7,0.1,0.8h4.1c1,0,1.8-0.1,2.4-0.2c0.6-0.2,1.1-0.4,1.5-0.8c0.3-0.2,0.6-0.6,1-1.2c0.4-0.5,0.8-1.2,1.1-1.9c0.3,0,0.6,0,0.9,0
	c-0.2,1.1-0.4,2.1-0.5,3.1c-0.1,0.9-0.3,1.7-0.4,2.4h-3c-1.1,0-2.1,0-3.2,0s-2.1,0-2.9,0h-2.1c-0.9,0-1.7,0-2.3,0
	c-0.6,0-1.1,0-1.6,0c-0.4,0-0.9,0-1.5,0c0-0.3,0-0.6,0-1c1-0.1,1.6-0.2,2-0.3s0.7-0.3,0.8-0.6c0.1-0.3,0.2-0.8,0.2-1.5V-6.9
	c0-0.8-0.1-1.5-0.2-1.8c-0.1-0.4-0.4-0.6-0.8-0.7s-1.1-0.2-2-0.3c0-0.3,0-0.6,0-1c0.5,0,1,0,1.4,0s0.8,0,1.2,0c0.4,0,0.9,0,1.4,0
	c0.6,0,1.3,0,2.2,0c1.6,0,3.1,0,4.5,0c0.9,0,1.6,0,2.3,0c0.5,0,1.3,0,2,0c0.5,0,0.9,0,1.2,0c0.4,0,1,0,1.5,0s1.2,0,1.7,0
	c0.6,0,1.1,0,1.5,0c0.1,0.3,0.1,0.6,0,1c-1.1,0.1-1.8,0.2-2.2,0.3c-0.4,0.1-0.6,0.4-0.6,0.7c0,0.1,0,0.3,0.1,0.5s0.2,0.5,0.3,0.7
	l5.2,13.9l5.1-13.3c0.1-0.4,0.2-0.7,0.3-1c0.1-0.3,0.1-0.5,0.1-0.7c0-0.4-0.2-0.7-0.6-0.8c-0.4-0.2-1.2-0.3-2.3-0.4
	c-0.1-0.3-0.1-0.7,0-1c0.3,0,0.8,0,1.3,0c0.6,0,1.2,0,1.8,0c0.6,0,1,0,1.3,0c0.6,0,1.2,0,1.7,0s1.1,0,1.7,0
	C-324.9-10.4-324.9-10.1-324.9-9.8z"/>
<path class="st1" d="M-148,111.5c-3.6,0.3-6.5,0.7-8.7,1c-2.3,0.3-4.3,1.2-5.9,2.4c-1.6,1.3-3.1,3.2-4.5,5.9
	c-1.4,2.6-3,6.4-4.8,11.1l-40.6,102.3c-1.5,0.5-3.2,0.8-5.1,1s-3.6,0.4-4.8,0.4l-38.2-100.8l-0.1-0.2c-1.5-3.6-3.1-6.8-5.1-9.5
	c-2-2.8-4-4.9-6.1-6.5c-2.3-1.7-5.1-2.9-8.4-3.8c-3.2-0.8-7.2-1.3-12-1.3h-24.1v50.2h10.2c5.9,0,10.4-0.3,13.4-1.2
	c3-0.8,5.3-2.6,6.8-5.3c1.5-2.8,2.6-7.1,3.5-13.2c2.2-0.3,4.3-0.3,6.3,0c-0.1,5.3-0.2,9.5-0.3,12.5c-0.1,2.8-0.1,4.9-0.1,6.3v5.1
	l0.2,24.2c-1.9,0.3-4,0.3-6.3,0c-0.7-6.5-1.8-11.1-3.2-13.9c-1.4-2.8-3.7-4.7-6.5-5.4c-2.8-0.7-6.9-1-12.1-1h-11.8v39.9
	c0,4.1,0,7.5,0.1,10s0.2,4.1,0.3,4.8h25.1c6.1,0,11-0.5,14.8-1.5s6.8-2.6,9.3-4.7c1.8-1.4,3.8-3.7,6.1-7.1c2.4-3.4,4.5-7.2,6.7-11.6
	c2-0.2,3.8-0.2,5.7,0c-1.3,6.8-2.2,13-3.1,18.5c-0.8,5.6-1.6,10.3-2.2,14.3h-18.2c-6.5,0-13-0.1-19.5-0.1
	c-6.5-0.1-12.5-0.1-17.8-0.1h-12.7c-5.8,0-10.5,0-14,0.1c-3.7,0.1-6.8,0.1-9.5,0.2s-5.8,0.1-9.1,0.1c-0.2-1.9-0.2-3.8,0-5.9
	c5.8-0.6,9.8-1.3,12.3-1.8s4-1.8,4.6-3.7s0.9-4.9,0.9-9.3v-85.3c0-5.1-0.3-8.8-0.9-11s-2.2-3.7-4.7-4.3s-6.7-1.3-12.3-1.8
	c-0.3-1.8-0.3-3.7,0-5.8c3.2,0,6,0.1,8.4,0.1c2.4,0.1,4.8,0.1,7.2,0.1c2.4,0,5.3,0.1,8.8,0.1c3.5,0.1,7.9,0.1,13.1,0.1
	c9.6,0,18.7,0,27.1-0.1c5.2-0.1,10,0.1,14.1,0.1c2.8,0.1,7.6,0.1,11.8,0.1c2.8-0.1,5.3-0.1,7.1-0.1c2.6,0,5.8-0.1,9.3-0.1
	c3.6-0.1,7-0.1,10.5-0.2s6.5-0.1,9.3-0.1c0.3,1.8,0.3,3.8,0,5.9c-6.5,0.5-11,1-13.6,1.8c-2.6,0.7-3.9,2.2-3.9,4.4
	c0,0.8,0.2,2,0.6,3.2c0.5,1.3,0.9,2.8,1.6,4.5l31.4,84.2l30.8-80.9c0.8-2.4,1.5-4.3,2-6s0.8-3,0.8-4.1c0-2.4-1.3-4.1-3.8-5
	s-7.1-1.7-14-2.1c-0.3-2.1-0.3-4.1,0-5.9c1.9,0,4.5,0,8.2,0.1c3.5-0.1,7,0,10.6,0c3.6,0.1,6.3,0.1,8.1,0.1c4,0,7.4-0.1,10.6-0.2
	c3.1-0.1,6.6-0.2,10.5-0.2C-147.6,107.7-147.6,109.6-148,111.5z"/>
<path class="st1" d="M325.4,111.5c-3.6,0.3-6.5,0.7-8.7,1c-2.3,0.3-4.3,1.2-5.9,2.4c-1.6,1.3-3.1,3.2-4.5,5.9
	c-1.4,2.6-3,6.4-4.8,11.1l-40.6,102.3c-1.5,0.5-3.2,0.8-5.1,1c-1.9,0.2-3.6,0.4-4.8,0.4l-38.2-100.8l-0.1-0.2
	c-1.5-3.6-3.1-6.8-5.1-9.5c-2-2.8-4-4.9-6.1-6.5c-2.3-1.7-5.1-2.9-8.4-3.8c-3.2-0.8-7.2-1.3-12-1.3H157v50.2h10.2
	c5.9,0,10.4-0.3,13.4-1.2c3-0.8,5.3-2.6,6.8-5.3c1.5-2.8,2.6-7.1,3.5-13.2c2.2-0.3,4.3-0.3,6.3,0c-0.1,5.3-0.2,9.5-0.3,12.5
	c-0.1,2.8-0.1,4.9-0.1,6.3v5.1l0.2,24.2c-1.9,0.3-4,0.3-6.3,0c-0.7-6.5-1.8-11.1-3.2-13.9c-1.4-2.8-3.7-4.7-6.5-5.4
	c-2.8-0.7-6.9-1-12.1-1h-11.8v39.9c0,4.1,0,7.5,0.1,10s0.2,4.1,0.3,4.8h25.1c6.1,0,11-0.5,14.8-1.5s6.8-2.6,9.3-4.7
	c1.8-1.4,3.8-3.7,6.1-7.1c2.4-3.4,4.5-7.2,6.7-11.6c2-0.2,3.8-0.2,5.7,0c-1.3,6.8-2.2,13-3.1,18.5c-0.8,5.6-1.6,10.3-2.2,14.3h-18.2
	c-6.5,0-13-0.1-19.5-0.1c-6.5-0.1-12.5-0.1-17.8-0.1h-12.7c-5.8,0-10.5,0-14,0.1c-3.7,0.1-6.8,0.1-9.5,0.2c-2.7,0.1-5.8,0.1-9.1,0.1
	c-0.2-1.9-0.2-3.8,0-5.9c5.8-0.6,9.8-1.3,12.3-1.8s4-1.8,4.6-3.7s0.9-4.9,0.9-9.3v-85.3c0-5.1-0.3-8.8-0.9-11s-2.2-3.7-4.7-4.3
	s-6.7-1.3-12.3-1.8c-0.3-1.8-0.3-3.7,0-5.8c3.2,0,6,0.1,8.4,0.1c2.4,0.1,4.8,0.1,7.2,0.1c2.4,0,5.3,0.1,8.8,0.1
	c3.5,0.1,7.9,0.1,13.1,0.1c9.6,0,18.7,0,27.1-0.1c5.2-0.1,10,0.1,14.1,0.1c2.8,0.1,7.6,0.1,11.8,0.1c2.8-0.1,5.3-0.1,7.1-0.1
	c2.6,0,5.8-0.1,9.3-0.1c3.6-0.1,7-0.1,10.5-0.2s6.5-0.1,9.3-0.1c0.3,1.8,0.3,3.8,0,5.9c-6.5,0.5-11,1-13.6,1.8
	c-2.6,0.7-3.9,2.2-3.9,4.4c0,0.8,0.2,2,0.6,3.2c0.5,1.3,0.9,2.8,1.6,4.5l31.4,84.2l30.8-80.9c0.8-2.4,1.5-4.3,2-6s0.8-3,0.8-4.1
	c0-2.4-1.3-4.1-3.8-5s-7.1-1.7-14-2.1c-0.3-2.1-0.3-4.1,0-5.9c1.9,0,4.5,0,8.2,0.1c3.5-0.1,7,0,10.6,0c3.6,0.1,6.3,0.1,8.1,0.1
	c4,0,7.4-0.1,10.6-0.2c3.1-0.1,6.6-0.2,10.5-0.2C325.8,107.7,325.8,109.6,325.4,111.5z"/>
</svg>
